<svg width="1024" height="1024" viewBox="0 0 1024 1024" fill="none" xmlns="http://www.w3.org/2000/svg">
<mask id="mask0_335_103" style="mask-type:luminance" maskUnits="userSpaceOnUse" x="0" y="0" width="1024" height="1024">
<rect width="1024" height="1024" fill="white"/>
</mask>
<g mask="url(#mask0_335_103)">
<g clip-path="url(#clip0_335_103)">
<path d="M125.402 625.778L164.212 404.594H213.552L182.263 583.604H280.944L274.024 625.778H125.402ZM293.398 625.778L331.908 404.594H495.873L488.653 446.464H374.027L365.603 493.796H465.186L457.966 532.632H358.985L349.959 583.908H464.885L457.665 625.778H293.398ZM463.553 625.778L561.632 507.145L511.088 404.594H567.348L599.54 478.929H601.947L659.711 404.594H719.28L629.324 513.214L681.974 625.778H625.714L589.612 544.465H587.205L522.22 625.778H463.553ZM698.142 625.778L736.651 404.594H900.614L893.394 446.464H778.771L770.347 493.796H869.93L862.709 532.632H763.728L754.703 583.908H869.629L862.409 625.778H698.142Z" fill="#1C2123"/>
</g>
</g>
<defs>
<clipPath id="clip0_335_103">
<rect width="782.222" height="227.556" fill="white" transform="translate(120.889 398.222)"/>
</clipPath>
</defs>
</svg>
