<svg width="216" height="216" viewBox="0 0 216 216" fill="none" xmlns="http://www.w3.org/2000/svg">
<g clip-path="url(#clip0_307_166)">
<g clip-path="url(#clip1_307_166)">
<path d="M63.5192 121L67.9846 95.728H73.6615L70.0615 116.181H81.4154L80.6192 121H63.5192ZM82.8484 121L87.2791 95.728H106.145L105.314 100.512H92.1253L91.1561 105.92H102.614L101.783 110.357H90.3945L89.3561 116.216H102.579L101.748 121H82.8484ZM102.426 121L113.71 107.445L107.895 95.728H114.368L118.072 104.221H118.349L124.995 95.728H131.849L121.499 108.139L127.557 121H121.084L116.93 111.709H116.653L109.176 121H102.426ZM129.417 121L133.848 95.728H152.713L151.882 100.512H138.694L137.725 105.92H149.182L148.351 110.357H136.963L135.925 116.216H149.148L148.317 121H129.417Z" fill="#1C2123"/>
</g>
</g>
<defs>
<clipPath id="clip0_307_166">
<rect width="216" height="216" fill="white"/>
</clipPath>
<clipPath id="clip1_307_166">
<rect width="90" height="26" fill="white" transform="translate(63 95)"/>
</clipPath>
</defs>
</svg>
